<svg xmlns="http://www.w3.org/2000/svg" width="86" height="86" viewBox="0 0 86 86">
  <g id="Group_4717" data-name="Group 4717" transform="translate(5.116 5)">
    <g id="Rectangle_7" data-name="Rectangle 7" transform="translate(-5.116 -5)" fill="rgba(97,157,191,0.12)" stroke="rgba(0,78,110,0.3)" stroke-width="0.5">
      <rect width="86" height="86" rx="43" stroke="none"/>
      <rect x="0.25" y="0.25" width="85.5" height="85.5" rx="42.75" fill="none"/>
    </g>
    <g id="svgexport-6_-_2022-07-30T034745.623" data-name="svgexport-6 - 2022-07-30T034745.623" transform="translate(20.237 20.531)">
      <g id="Group_4722" data-name="Group 4722">
        <g id="Group_4721" data-name="Group 4721">
          <circle id="Ellipse_1" data-name="Ellipse 1" cx="0.689" cy="0.689" r="0.689" transform="translate(16.957 24.564)" fill="#fff"/>
          <path id="Path_1212" data-name="Path 1212" d="M35.294,195.361v-2.146a.767.767,0,0,0-1.058-.709l-1.45.6v-.989a.848.848,0,0,0-1.158-.789l-.625.246v-1.325a.722.722,0,0,0-1.015-.658,4.336,4.336,0,0,1-1.992.2,14.269,14.269,0,0,0-4.084.262c-3.776.8-5.526,2.271-6.263,3.14a6,6,0,0,0-.636-.641,11.173,11.173,0,0,0-4.281-2.163.517.517,0,0,0-.288.993c3.35.97,4.461,2.484,4.686,2.848v.5a23.737,23.737,0,0,0-7.4-3.01.517.517,0,0,0-.207,1.013,22.394,22.394,0,0,1,7.607,3.259v.637l-2.979-1.174-8.825-3.477v-1.291a6.054,6.054,0,0,0,2.055.134,13.293,13.293,0,0,1,2.85.08.517.517,0,0,0,.14-1.025,14.337,14.337,0,0,0-3.072-.086,4.335,4.335,0,0,1-1.992-.2.722.722,0,0,0-1.015.658v1.325l-.625-.246a.848.848,0,0,0-1.158.789v.989l-1.45-.6A.767.767,0,0,0,0,193.215v2.146a.764.764,0,0,0,.416.682l11.191,5.766L.475,206.385a.764.764,0,0,0-.475.709v3.715a.767.767,0,0,0,1.057.71l2.8-1.142,1.808.491a.765.765,0,0,0,.552-.058l11.432-5.89,6.132,3.159a.517.517,0,1,0,.474-.919l-5.477-2.822,3.7-1.908,11.78,4.843v3.138l-2.513-1.026a.771.771,0,0,0-.491-.03l-1.8.488L26.4,208.269a.517.517,0,1,0-.474.919l3.149,1.623a.765.765,0,0,0,.552.058l1.808-.491,2.8,1.142a.767.767,0,0,0,1.057-.71v-3.715a.764.764,0,0,0-.475-.709l-11.132-4.576,11.191-5.766a.764.764,0,0,0,.416-.682Zm-17.13.631a22.394,22.394,0,0,1,7.607-3.259.517.517,0,0,0-.207-1.013,23.737,23.737,0,0,0-7.4,3.01v-.5a4.417,4.417,0,0,1,1.015-1.08,11.709,11.709,0,0,1,4.946-2.085,13.233,13.233,0,0,1,3.789-.243,6.054,6.054,0,0,0,2.055-.134v1.291l-8.825,3.477-2.979,1.174v-.636Zm-14.621-3.6,13.914,5.482a.517.517,0,0,0,.379,0l13.914-5.482v1.14l-14.1,5.8-14.1-5.8ZM1.034,195.2v-1.584l15.253,6.271-3.424,1.408ZM.868,207.342h0ZM34.259,195.2,5.833,209.844l-1.8-.488a.77.77,0,0,0-.491.03l-2.513,1.026v-3.138l33.225-13.66V195.2Z" transform="translate(0 -176.638)" fill="#fff"/>
          <circle id="Ellipse_2" data-name="Ellipse 2" cx="0.689" cy="0.689" r="0.689" transform="translate(19.547 3.211)" fill="#fff"/>
          <circle id="Ellipse_3" data-name="Ellipse 3" cx="0.689" cy="0.689" r="0.689" transform="translate(21.54 3.356) rotate(-10.894)" fill="#fff"/>
          <path id="Path_1213" data-name="Path 1213" d="M371.376,76.243a.517.517,0,0,0,.517-.517V69.8a.517.517,0,0,0-1.034,0v5.931A.517.517,0,0,0,371.376,76.243Z" transform="translate(-345.295 -64.68)" fill="#fff"/>
          <path id="Path_1214" data-name="Path 1214" d="M139.494,69.8v5.931a.517.517,0,1,0,1.034,0V69.8a.517.517,0,1,0-1.034,0Z" transform="translate(-129.878 -64.68)" fill="#fff"/>
          <path id="Path_1215" data-name="Path 1215" d="M176.949,85.255a2.973,2.973,0,0,0,1.415.314,3.656,3.656,0,0,0,2.476-.865,2.581,2.581,0,0,0,.605-1.017,3.988,3.988,0,0,0,2.066.594c1.857,0,3.638-1.139,3.62-3.139a2.752,2.752,0,0,0-.979-2.185,1.872,1.872,0,0,0-1.719-.256,1.779,1.779,0,0,0-1.277,2.153,1.685,1.685,0,0,0,.965,1.081,2.766,2.766,0,0,0,1.8.1,2.377,2.377,0,0,1-2.164,1.2,2.942,2.942,0,0,1-2.078-.642.527.527,0,0,0-.068-.045,8.441,8.441,0,0,0-.219-1.627l-.185-.914a.517.517,0,1,0-1.014.205l.185.914a6.752,6.752,0,0,1,.2,1.6,1.879,1.879,0,0,1-.47,1.248,2.808,2.808,0,0,1-2.657.375,1,1,0,0,1-.527-.773.875.875,0,0,1,.341-.772.517.517,0,0,0-.653-.8,1.906,1.906,0,0,0-.718,1.666A2.029,2.029,0,0,0,176.949,85.255Zm8.966-4.313a1.794,1.794,0,0,1-1.371.05.663.663,0,0,1-.4-.43.764.764,0,0,1,.583-.87,1.182,1.182,0,0,1,.339-.055.768.768,0,0,1,.469.152,1.617,1.617,0,0,1,.542,1.105A.516.516,0,0,0,185.915,80.942Z" transform="translate(-163.76 -73.362)" fill="#fff"/>
          <path id="Path_1216" data-name="Path 1216" d="M126.18,6.195a.517.517,0,0,0,.68.269c.882-.382,1.834-.876,1.874-.9a.517.517,0,0,0-.275-.974c-.691.049-1.1-.079-1.218-.38a.421.421,0,0,1,.058-.451.45.45,0,0,1,.444-.139.517.517,0,0,0,.231-1.008,1.483,1.483,0,0,0-1.457.47,1.454,1.454,0,0,0-.24,1.5,1.481,1.481,0,0,0,.607.735c-.144.066-.291.132-.434.194A.517.517,0,0,0,126.18,6.195Z" transform="translate(-117.442 -2.576)" fill="#fff"/>
        </g>
      </g>
    </g>
  </g>
</svg>
