<svg xmlns="http://www.w3.org/2000/svg" width="86" height="86" viewBox="0 0 86 86">
  <g id="Group_4715" data-name="Group 4715" transform="translate(4.884 5)">
    <g id="Path_1218" data-name="Path 1218" transform="translate(-4.884 -5)" fill="rgba(97,157,191,0.12)">
      <path d="M43,0A43,43,0,1,1,0,43,43,43,0,0,1,43,0Z" stroke="none"/>
      <path d="M 43 0.5 C 37.26231002807617 0.5 31.6965217590332 1.623619079589844 26.45723342895508 3.839653015136719 C 21.39642333984375 5.980201721191406 16.85124206542969 9.044677734375 12.94796752929688 12.94796752929688 C 9.044677734375 16.85124206542969 5.980201721191406 21.39642333984375 3.839653015136719 26.45723342895508 C 1.623619079589844 31.6965217590332 0.5 37.26231002807617 0.5 43 C 0.5 48.73768997192383 1.623619079589844 54.3034782409668 3.839653015136719 59.54276657104492 C 5.980201721191406 64.60357666015625 9.044677734375 69.14875793457031 12.94796752929688 73.05203247070312 C 16.85124206542969 76.955322265625 21.39642333984375 80.01979827880859 26.45723342895508 82.16034698486328 C 31.6965217590332 84.37638092041016 37.26231002807617 85.5 43 85.5 C 48.73768997192383 85.5 54.3034782409668 84.37638092041016 59.54276657104492 82.16034698486328 C 64.60357666015625 80.01979827880859 69.14875793457031 76.955322265625 73.05203247070312 73.05203247070312 C 76.955322265625 69.14875793457031 80.01979827880859 64.60357666015625 82.16034698486328 59.54276657104492 C 84.37638092041016 54.3034782409668 85.5 48.73768997192383 85.5 43 C 85.5 37.26231002807617 84.37638092041016 31.6965217590332 82.16034698486328 26.45723342895508 C 80.01979827880859 21.39642333984375 76.955322265625 16.85124206542969 73.05203247070312 12.94796752929688 C 69.14875793457031 9.044677734375 64.60357666015625 5.980201721191406 59.54276657104492 3.839653015136719 C 54.3034782409668 1.623619079589844 48.73768997192383 0.5 43 0.5 M 43 0 C 66.74824523925781 0 86 19.25175476074219 86 43 C 86 66.74824523925781 66.74824523925781 86 43 86 C 19.25175476074219 86 0 66.74824523925781 0 43 C 0 19.25175476074219 19.25175476074219 0 43 0 Z" stroke="none" fill="rgba(0,78,110,0.3)"/>
    </g>
    <g id="svgexport-6_-_2022-07-30T044753.745" data-name="svgexport-6 - 2022-07-30T044753.745" transform="translate(21.978 17.45)">
      <g id="layer1" transform="translate(2.647 0.529)">
        <path id="path12961" d="M22.216,289.8a.627.627,0,0,0,.668-.616v-1.839a6.743,6.743,0,0,0-6.745-6.745h0a6.744,6.744,0,0,0-6.747,6.745v1.839a.627.627,0,0,0,.666.616,1.925,1.925,0,0,0-1.893,1.836,2.983,2.983,0,0,0,2.578,3.035,5.508,5.508,0,0,0,1.773,2.967v3.2a.622.622,0,0,0,.028.177,3.368,3.368,0,0,0,1.751,1.9v6.515a.615.615,0,0,0,.182.435l1.227,1.222a.614.614,0,0,0,.87,0l1.227-1.222a.613.613,0,0,0,.176-.435v-4.3a.613.613,0,1,0-1.227,0v4.043l-.611.612-.616-.612v-5.921a5.038,5.038,0,0,0,.616.041,3.536,3.536,0,0,0,3.59-2.277.609.609,0,0,0,.028-.163l.059-3.264a5.468,5.468,0,0,0,1.711-2.907,3,3,0,0,0,2.586-3.044,1.917,1.917,0,0,0-1.9-1.836Zm-6.077-7.973a5.492,5.492,0,0,1,5.519,5.519v1.228H10.62v-1.228a5.492,5.492,0,0,1,5.519-5.519ZM11.847,289.8h8.584v3.681a4.292,4.292,0,0,1-8.584,0Zm-1.227,1.441v2.149a1.728,1.728,0,0,1-1.223-1.73A.718.718,0,0,1,10.62,291.237Zm12.259.419a1.706,1.706,0,0,1-1.222,1.73v-2.151A.715.715,0,0,1,22.879,291.656Zm-4.306,6.768-.039,2.269a2.386,2.386,0,0,1-2.395,1.367,2.388,2.388,0,0,1-2.4-1.367v-2.251a5.466,5.466,0,0,0,4.83-.018Zm-7.953,1.8A7.969,7.969,0,0,0,2.647,308.2v8.584a.613.613,0,0,0,.611.616H29.02a.613.613,0,0,0,.611-.616V308.2a7.969,7.969,0,0,0-7.973-7.973.613.613,0,0,0,0,1.227A6.717,6.717,0,0,1,28.4,308.2v7.973H25.338v-5.531a.613.613,0,1,0-1.227,0v5.531H8.165v-5.531a.613.613,0,1,0-1.227,0v5.531H3.869V308.2a6.722,6.722,0,0,1,6.751-6.747.613.613,0,0,0,0-1.227Z" transform="translate(-2.647 -280.596)" fill="#fff"/>
      </g>
    </g>
  </g>
</svg>
