<svg xmlns="http://www.w3.org/2000/svg" width="86" height="86" viewBox="0 0 86 86">
  <g id="Group_4716" data-name="Group 4716" transform="translate(4.82 5)">
    <g id="Rectangle_7" data-name="Rectangle 7" transform="translate(-4.82 -5)" fill="rgba(97,157,191,0.12)" stroke="rgba(0,78,110,0.3)" stroke-width="0.5">
      <rect width="86" height="86" rx="43" stroke="none"/>
      <rect x="0.25" y="0.25" width="85.5" height="85.5" rx="42.75" fill="none"/>
    </g>
    <g id="Group_4723" data-name="Group 4723" transform="translate(21.576 21.397)">
      <g id="Group_4719" data-name="Group 4719">
        <g id="Group_4718" data-name="Group 4718">
          <path id="Subtraction_1" data-name="Subtraction 1" d="M8.285,18.843a.674.674,0,0,1-.341-.091c-2.92-1.669-6.908-4.472-7.83-9.53a8.443,8.443,0,0,1,1.72-6.646A7.422,7.422,0,0,1,7.807,0a7.393,7.393,0,0,1,7.654,6A9.031,9.031,0,0,1,10.25,16.055a.677.677,0,0,1-.276.058.689.689,0,0,1-.279-1.321,7.645,7.645,0,0,0,4.417-8.506,6.042,6.042,0,0,0-2.167-3.607,6.661,6.661,0,0,0-4.137-1.3A6.067,6.067,0,0,0,2.894,3.459,7.1,7.1,0,0,0,1.471,8.976c.624,3.418,2.9,6.144,7.158,8.58a.69.69,0,0,1,.255.941A.691.691,0,0,1,8.285,18.843Z" transform="translate(8.862)" fill="#fff"/>
          <path id="Subtraction_2" data-name="Subtraction 2" d="M23.259,6.98a.691.691,0,0,1-.65-.46c-.733-2.076-3.537-3.958-4.708-4.671l-.346-.21-.205.35a7.576,7.576,0,0,1-6.441,4.141,7.631,7.631,0,0,1-6.5-4.137L4.2,1.642l-.346.21a18.509,18.509,0,0,0-2.7,1.982.685.685,0,0,1-.462.178.692.692,0,0,1-.512-.227.689.689,0,0,1,.049-.973A20.477,20.477,0,0,1,4.191.075.7.7,0,0,1,4.507,0a.679.679,0,0,1,.225.038.692.692,0,0,1,.4.363c1.253,2.723,3.413,4.348,5.778,4.348S15.352,3.165,16.622.4a.7.7,0,0,1,.4-.364A.682.682,0,0,1,17.246,0a.693.693,0,0,1,.315.075,20.876,20.876,0,0,1,2.834,1.809,9.9,9.9,0,0,1,3.515,4.177.691.691,0,0,1-.65.919Z" transform="translate(5.714 16.125)" fill="#fff"/>
          <path id="Subtraction_5" data-name="Subtraction 5" d="M32.517,1.378H.689A.689.689,0,1,1,.689,0H32.517a.689.689,0,1,1,0,1.378Z" transform="translate(0 31.828)" fill="#fff"/>
          <path id="Subtraction_4" data-name="Subtraction 4" d="M15.828,6.1l-.06,0-.04,0a122.943,122.943,0,0,0-15.04-.98.689.689,0,0,1,0-1.379c4.7,0,9.048.331,11.87.609l.221-.752C11.049,2.7,7.69,1.6,1.519,1.378A.689.689,0,0,1,.854.666.679.679,0,0,1,1.526,0h.042c8.7.306,12.4,2.276,13.978,3.875l.284.288.283-.288C17.693,2.276,21.4.306,30.083,0H30.1a.689.689,0,0,1,.517,1.159.683.683,0,0,1-.48.219C23.967,1.6,20.607,2.7,18.875,3.589l.221.752c2.825-.278,7.178-.609,11.868-.609a.689.689,0,1,1,0,1.379,121.549,121.549,0,0,0-15.036.979l-.042,0Z" transform="translate(0.776 24.623)" fill="#fff"/>
          <path id="Subtraction_3" data-name="Subtraction 3" d="M5.05,8.545a.685.685,0,0,1-.59-.332L.1,1.047A.689.689,0,0,1,.332.1.693.693,0,0,1,.689,0a.686.686,0,0,1,.59.332L5.638,7.5A.689.689,0,0,1,5.05,8.545Z" transform="translate(0.191 14.913)" fill="#fff"/>
        </g>
      </g>
    </g>
  </g>
</svg>
