<svg xmlns="http://www.w3.org/2000/svg" width="63" height="63" viewBox="0 0 63 63">
  <g id="Group_4703" data-name="Group 4703" transform="translate(5 5)">
    <rect id="Rectangle_7" data-name="Rectangle 7" width="63" height="63" rx="31.5" transform="translate(-5 -5)" fill="rgba(97,157,191,0.12)"/>
    <g id="svgexport-6_-_2022-07-30T023117.423" data-name="svgexport-6 - 2022-07-30T023117.423" transform="translate(13.496 13.737)">
      <g id="reading">
        <path id="Path_1184" data-name="Path 1184" d="M32.367,10.208c-.785-.572-1.493-.192-2.481.12,0-.832.114-1.56-.681-2.127a1.56,1.56,0,0,0-1.441-.166L20,11.05,12.243,8.033A1.56,1.56,0,0,0,10.8,8.2c-.811.551-.681,1.368-.681,2.127-.978-.312-1.7-.692-2.481-.12A1.56,1.56,0,0,0,7,11.466V25.411A1.56,1.56,0,0,0,8.087,26.9l1.514.479v4.65a1.425,1.425,0,0,0,1.425,1.425c.328,0-.234.146,8.978-2.772,9.279,2.939,8.655,2.772,8.978,2.772a1.425,1.425,0,0,0,1.425-1.425v-4.65L31.92,26.9a1.56,1.56,0,0,0,1.087-1.488V11.466A1.56,1.56,0,0,0,32.367,10.208ZM11.161,21.729c6.185,2.408,7.667,2.554,8.213,4.681l-8.213-3.194Zm9.472,4.681c.52-2.143,2.029-2.273,8.213-4.681v1.488Zm7.506-17.4a.52.52,0,0,1,.707.484V20.621c-6.7,2.6-7.4,2.7-8.322,3.787V11.961Zm-16.978.479a.52.52,0,0,1,.707-.479L17.4,11.154v9.815a.52.52,0,0,0,1.04,0V11.56l1.04.4c0,13.607.042,12.483-.073,12.374-.915-1.04-1.269-1-8.249-3.719Zm0,22.886a.4.4,0,0,1-.52-.364V27.731l7.641,2.429Zm18.205-.364a.385.385,0,0,1-.385.385c-.1,0,.291.114-7.251-2.278l7.636-2.382Zm2.6-6.616a.52.52,0,0,1-.364.52L20,29.588,8.4,25.906a.52.52,0,0,1-.364-.52c0-15.131-.094-14.138.213-14.361s.4-.1,1.867.369c0,13.232-.135,12.452.333,12.634,9.883,3.844,9.477,3.755,9.753,3.641,10.028-3.88,9.68-3.579,9.68-4.1V11.42c1.488-.473,1.592-.572,1.867-.369s.213-.759.213,14.361Z" transform="translate(-7 -7.929)" fill="#004e6e"/>
      </g>
    </g>
  </g>
</svg>
