<svg xmlns="http://www.w3.org/2000/svg" width="63" height="63" viewBox="0 0 63 63">
  <g id="Group_4703" data-name="Group 4703" transform="translate(5 5)">
    <rect id="Rectangle_7" data-name="Rectangle 7" width="63" height="63" rx="31.5" transform="translate(-5 -5)" fill="rgba(97,157,191,0.12)"/>
    <g id="svgexport-6_-_2022-07-30T032329.969" data-name="svgexport-6 - 2022-07-30T032329.969" transform="translate(12.02 11.073)">
      <g id="Group_4710" data-name="Group 4710">
        <g id="Group_4709" data-name="Group 4709" transform="translate(0 0)">
          <path id="Path_1199" data-name="Path 1199" d="M29.7,14.36,25.83,10.486V5.008a.878.878,0,0,0-.877-.877H19.475L15.6.257a.878.878,0,0,0-1.241,0L10.487,4.13H5.008a.878.878,0,0,0-.877.877v5.478L.257,14.36a.878.878,0,0,0,0,1.241l3.874,3.874v5.478a.878.878,0,0,0,.877.877h5.478L14.36,29.7a.878.878,0,0,0,1.241,0l3.874-3.874h5.478a.878.878,0,0,0,.877-.877V23.008a.439.439,0,1,0-.878,0v1.944H19.474a.872.872,0,0,0-.62.257l-3.873,3.874-3.874-3.874a.871.871,0,0,0-.62-.257H5.008V19.474a.871.871,0,0,0-.257-.62L.878,14.98l3.874-3.874a.871.871,0,0,0,.257-.62V5.008h5.478a.872.872,0,0,0,.62-.257L14.98.877l3.874,3.874a.872.872,0,0,0,.62.257h5.478v5.478a.872.872,0,0,0,.257.62l3.874,3.873L25.21,18.854a.872.872,0,0,0-.257.62v1.487a.439.439,0,0,0,.878,0V19.474L29.7,15.6A.878.878,0,0,0,29.7,14.36Z" transform="translate(-0.001 0)" fill="#004e6e"/>
          <path id="Path_1200" data-name="Path 1200" d="M60.224,76.488h4.32L67.6,79.543a.627.627,0,0,0,.886,0l3.055-3.055h4.32a.627.627,0,0,0,.627-.627v-4.32l3.055-3.055a.627.627,0,0,0,0-.886l-3.055-3.055v-4.32a.627.627,0,0,0-.627-.627H71.54l-3.055-3.055a.627.627,0,0,0-.886,0L64.544,59.6h-4.32a.627.627,0,0,0-.627.627v4.32L56.543,67.6a.627.627,0,0,0,0,.886L59.6,71.542v4.32A.627.627,0,0,0,60.224,76.488Zm16.665-10.3,1.855,1.855L76.888,69.9a9.067,9.067,0,0,0,0-3.709ZM60.475,75.611v-2.63a9.111,9.111,0,0,0,2.63,2.63Zm7.567,3.134L66.187,76.89a9.069,9.069,0,0,0,3.709,0Zm7.567-3.134h-2.63a9.11,9.11,0,0,0,2.63-2.63Zm0-15.134v2.63a9.11,9.11,0,0,0-2.63-2.63Zm-7.567-3.134L69.9,59.2a9.043,9.043,0,0,0-1.855-.192,9.135,9.135,0,0,0-1.851.188Zm-6.393,5.629a.439.439,0,1,0-.687-.546q-.26.328-.487.673V60.477H63.1q-.311.2-.608.436a.439.439,0,0,0,.54.692,8.08,8.08,0,0,1,5.014-1.721,8.161,8.161,0,1,1-8.161,8.161A8.074,8.074,0,0,1,61.649,62.971ZM57.34,68.044l1.851-1.851A9.146,9.146,0,0,0,59,68.044,9.039,9.039,0,0,0,59.2,69.9Z" transform="translate(-53.062 -53.064)" fill="#004e6e"/>
          <g id="Group_4708" data-name="Group 4708" transform="translate(9.901 8.822)">
            <path id="Path_1201" data-name="Path 1201" d="M328.293,205.01a.439.439,0,0,0-.439.439v6.66a.439.439,0,1,0,.878,0v-6.66A.439.439,0,0,0,328.293,205.01Z" transform="translate(-318.574 -201.839)" fill="#004e6e"/>
            <path id="Path_1202" data-name="Path 1202" d="M176.887,205.01a.439.439,0,0,0-.439.439v5.328a.893.893,0,1,1-1.787,0v-2a.439.439,0,1,0-.878,0v2a.893.893,0,0,1-1.787,0v-2.565a1.34,1.34,0,0,0-.553-1.109,1.451,1.451,0,0,0-1.313-.169,1.336,1.336,0,0,0-.686,1.974,1.806,1.806,0,0,0,1.674.662v1.208a1.77,1.77,0,0,0,3.1,1.165,1.77,1.77,0,0,0,3.1-1.165v-5.328A.439.439,0,0,0,176.887,205.01Zm-5.767,3.678c-.33.023-.775-.006-.937-.257a.445.445,0,0,1-.04-.39.507.507,0,0,1,.977.17S171.12,208.688,171.12,208.688Z" transform="translate(-169.238 -201.839)" fill="#004e6e"/>
            <path id="Path_1203" data-name="Path 1203" d="M219.29,183.6a.905.905,0,0,0,.562.2.988.988,0,0,0,.4-.086,1.181,1.181,0,0,0,.278-.173,1.487,1.487,0,0,0,1.114.22,1.109,1.109,0,0,0,.8-.556,1.7,1.7,0,0,0-.008-1.423.439.439,0,0,0-.816.322.923.923,0,0,1,.056.679c-.014.026-.048.088-.2.116a.6.6,0,0,1-.457-.088.105.105,0,0,1-.036-.1.439.439,0,0,0-.875-.073h0a.392.392,0,0,1-.21.276c-.043.019-.053.011-.066,0-.117-.092-.1-.254.016-.665.027-.1.054-.2.075-.294a.439.439,0,0,0-.859-.179c-.015.07-.037.151-.061.238A1.375,1.375,0,0,0,219.29,183.6Z" transform="translate(-215.971 -179.628)" fill="#004e6e"/>
            <path id="Path_1204" data-name="Path 1204" d="M237.41,152.065a2.035,2.035,0,0,0,1.009-.5.439.439,0,1,0-.578-.661,1.419,1.419,0,0,1-.549.3.439.439,0,0,0-.3.541A.389.389,0,0,0,237.41,152.065Z" transform="translate(-233.009 -150.801)" fill="#004e6e"/>
          </g>
        </g>
      </g>
    </g>
  </g>
</svg>
