<svg xmlns="http://www.w3.org/2000/svg" width="63" height="63" viewBox="0 0 63 63">
  <g id="Group_4703" data-name="Group 4703" transform="translate(5 5)">
    <rect id="Rectangle_7" data-name="Rectangle 7" width="63" height="63" rx="31.5" transform="translate(-5 -5)" fill="rgba(97,157,191,0.44)"/>
    <g id="Group_4711" data-name="Group 4711" transform="translate(12.347 10.231)">
      <path id="Path_1185" data-name="Path 1185" d="M37.1,454.09a2.277,2.277,0,0,1-.523,1.418,1.241,1.241,0,0,0-.821-.448q-.747,0-1.194,2.015-.223,1.493-.447,2.985a20.275,20.275,0,0,0-1.493-3.134.856.856,0,0,1-.9.821q-1.268,0-1.268-1.418,0-1.567,1.194-1.568,1.269,0,2.314,3.135.9-5.373,2.314-5.373Q37.1,452.523,37.1,454.09Zm-10.15,7.015a10.311,10.311,0,0,1-.9,3.881,20.552,20.552,0,0,0,.149-2.537,4.827,4.827,0,0,0-2.015-4.1l.224-1.791a4.1,4.1,0,0,1,1.866,2.052A6.179,6.179,0,0,1,26.953,461.105Zm9.926,23.956V468.642a10.961,10.961,0,0,1,1.008-3.134C38.558,463.916,38.321,484.265,36.879,485.061Zm-7.911-17.538q0,2.09-1.716,2.09a2.132,2.132,0,0,1-1.12-.373,1.985,1.985,0,0,1-1.866,1.642q-1.269.15-1.344-1.866a10.919,10.919,0,0,1,.3-1.716l.447-.075q0,1.791.821,1.716,1.194-.074,1.418-2.537l.3-.075q.373,1.492,1.045,1.492,1.119,0,.97-2.238l.373-.149A4.75,4.75,0,0,1,28.968,467.523ZM18.52,468.941a1.713,1.713,0,0,1,.223.9q0,2.314-1.567,2.314-1.642,0-1.642-1.94t2.164-5.821l.224.075a19.521,19.521,0,0,0-1.045,4.179q0,1.045.672,1.045.6,0,.821-.746Zm14.851-2.388-.224,3.582a21.158,21.158,0,0,1-1.493,6.791q-1.716,4.7-4.4,4.7a2.911,2.911,0,0,1-2.463-1.193q-1.418,3.059-4.179,3.059-3.06,0-4.329-3.433-1.642,2.015-6.344,3.657v-.373A26.007,26.007,0,0,0,18,474.239a6.477,6.477,0,0,0,1.493,2.986,3.528,3.528,0,0,0,2.686,1.566q1.642,0,2.985-2.611a12.075,12.075,0,0,0,1.12-3.358h.3a5.875,5.875,0,0,0,.6,2.425q.6,1.306,1.418,1.306,2.314,0,2.239-2.238l-.075-2.09a9.215,9.215,0,0,1,1.194-3.434A8.642,8.642,0,0,1,33.371,466.553Z" transform="translate(-9.938 -452.523)" fill="#fff" fill-rule="evenodd"/>
    </g>
  </g>
</svg>
