<svg xmlns="http://www.w3.org/2000/svg" width="63" height="63" viewBox="0 0 63 63">
  <g id="Group_4916" data-name="Group 4916" transform="translate(5 5)">
    <rect id="Rectangle_7" data-name="Rectangle 7" width="63" height="63" rx="31.5" transform="translate(-5 -5)" fill="rgba(97,157,191,0.12)"/>
    <g id="svgexport-6_-_2022-07-30T062422.731" data-name="svgexport-6 - 2022-07-30T062422.731" transform="translate(12.323 12.426)">
      <path id="Path_1220" data-name="Path 1220" d="M31.118,18.119a4.811,4.811,0,0,0-2.936-1.4V1.578a.506.506,0,0,0-.712-.463L18.644,5.038,9.808.129,9.792.122,9.774.113,9.734.1l-.013,0A.5.5,0,0,0,9.606.068H9.533L9.486.072H9.475a.469.469,0,0,0-.056.013l-.01,0L9.364.107l-.007,0L.3,4.134A.506.506,0,0,0,0,4.6V24.723a.506.506,0,0,0,.712.463l8.826-3.923,8.836,4.909.02.01.027.013.038.014.026.008.042.009.025,0,.054,0h.014a.559.559,0,0,0,.062,0l.014,0,.046-.009.018,0L18.8,26.2l.017-.006.006,0L23.4,24.157a5.52,5.52,0,0,0,.768,1.03l3.141,3.346a.506.506,0,0,0,.738,0l3.141-3.346A5.217,5.217,0,0,0,32.31,23.41a4.866,4.866,0,0,0,.293-2,5.143,5.143,0,0,0-1.485-3.288Zm-3.948-1.4a4.812,4.812,0,0,0-2.925,1.4,5.143,5.143,0,0,0-1.485,3.288,4.835,4.835,0,0,0,.233,1.824L19.125,24.95V5.932L27.17,2.357ZM10.068,1.432,18.113,5.9V24.869L10.068,20.4ZM1.012,4.926,9.056,1.351V20.369L1.012,23.944ZM31.359,23.064a4.21,4.21,0,0,1-.905,1.431l-2.772,2.953-2.772-2.953A4.21,4.21,0,0,1,24,23.063a3.856,3.856,0,0,1-.234-1.588,4.13,4.13,0,0,1,1.192-2.642,3.84,3.84,0,0,1,5.439,0,4.132,4.132,0,0,1,1.192,2.642,3.861,3.861,0,0,1-.234,1.588Zm0,0" fill="#004e6e"/>
      <path id="Path_1221" data-name="Path 1221" d="M348.6,257.215a2.734,2.734,0,1,0,2.675,2.733A2.707,2.707,0,0,0,348.6,257.215Zm0,4.454a1.722,1.722,0,1,1,1.663-1.721A1.694,1.694,0,0,1,348.6,261.669Zm0,0" transform="translate(-320.915 -238.559)" fill="#004e6e"/>
    </g>
  </g>
</svg>
