<svg xmlns="http://www.w3.org/2000/svg" width="63" height="63" viewBox="0 0 63 63">
  <g id="Group_4703" data-name="Group 4703" transform="translate(5 5)">
    <rect id="Rectangle_7" data-name="Rectangle 7" width="63" height="63" rx="31.5" transform="translate(-5 -5)" fill="rgba(97,157,191,0.12)"/>
    <g id="svgexport-6_-_2022-07-30T030835.984" data-name="svgexport-6 - 2022-07-30T030835.984" transform="translate(12.733 10.977)">
      <g id="Group_4706" data-name="Group 4706">
        <path id="Path_1186" data-name="Path 1186" d="M28.82,11.394a2.423,2.423,0,1,0-1.3-4.52,2.394,2.394,0,0,0-.83.815,3.9,3.9,0,0,0-3.534.037,9.893,9.893,0,0,0-.915-.605,9.7,9.7,0,0,0-.982-.49,3.9,3.9,0,0,0-1.733-3.079,2.4,2.4,0,0,0,.29-1.125,2.425,2.425,0,1,0-4.851,0,2.387,2.387,0,0,0,.291,1.126,3.9,3.9,0,0,0-1.734,3.084,9.8,9.8,0,0,0-1.893,1.092,3.9,3.9,0,0,0-3.538-.04,2.393,2.393,0,0,0-.83-.814,2.426,2.426,0,1,0-1.3,4.52,3.9,3.9,0,0,0,1.8,3.032,9.6,9.6,0,0,0,.008,2.189,3.9,3.9,0,0,0-1.805,3.038,2.424,2.424,0,1,0,1.3,4.521,2.4,2.4,0,0,0,.831-.818,3.855,3.855,0,0,0,3.532-.034,9.947,9.947,0,0,0,.915.6,9.7,9.7,0,0,0,.982.49,3.9,3.9,0,0,0,1.733,3.079,2.4,2.4,0,0,0-.29,1.126,2.425,2.425,0,0,0,4.851,0,2.387,2.387,0,0,0-.291-1.126,3.9,3.9,0,0,0,1.734-3.084,9.774,9.774,0,0,0,1.892-1.092,3.856,3.856,0,0,0,3.537.037,2.393,2.393,0,0,0,.831.817,2.426,2.426,0,1,0,1.3-4.52,3.9,3.9,0,0,0-1.8-3.033,9.6,9.6,0,0,0-.008-2.188,3.9,3.9,0,0,0,1.805-3.038ZM28,7.714A1.455,1.455,0,1,1,27.468,9.7,1.451,1.451,0,0,1,28,7.714ZM17.386.97a1.455,1.455,0,1,1-1.455,1.455A1.457,1.457,0,0,1,17.386.97ZM15.877,4.309a2.373,2.373,0,0,0,3.018,0A2.919,2.919,0,0,1,20.24,6.255a9.537,9.537,0,0,0-5.708,0A2.923,2.923,0,0,1,15.877,4.309ZM4.784,8.246a1.455,1.455,0,1,1,.533,1.988,1.46,1.46,0,0,1-.533-1.988Zm2.137,2.985a2.428,2.428,0,0,0,1.224-1.044,2.4,2.4,0,0,0,.285-1.578,2.925,2.925,0,0,1,2.362-.191,9.643,9.643,0,0,0-2.865,4.936A2.922,2.922,0,0,1,6.921,11.231Zm-.148,12.1A1.456,1.456,0,1,1,7.3,21.343,1.459,1.459,0,0,1,6.772,23.332Zm1.657-.9a2.4,2.4,0,0,0-.285-1.578,2.432,2.432,0,0,0-1.224-1.043,2.921,2.921,0,0,1,1.02-2.134c.027.117.045.236.076.353a9.64,9.64,0,0,0,2.772,4.594A2.924,2.924,0,0,1,8.429,22.436Zm.524-4.653a8.675,8.675,0,0,1,.871-6.625,8.73,8.73,0,0,1,11.928-3.2,8.734,8.734,0,0,1,3.2,11.928,8.73,8.73,0,0,1-11.928,3.2,8.672,8.672,0,0,1-4.067-5.3Zm8.433,12.293a1.455,1.455,0,1,1,1.455-1.455A1.457,1.457,0,0,1,17.386,30.075ZM18.9,26.737a2.373,2.373,0,0,0-3.018,0,2.919,2.919,0,0,1-1.345-1.946,9.537,9.537,0,0,0,5.708,0A2.923,2.923,0,0,1,18.9,26.737ZM29.989,22.8a1.455,1.455,0,1,1-.533-1.988A1.461,1.461,0,0,1,29.989,22.8Zm-2.137-2.984a2.429,2.429,0,0,0-1.224,1.044,2.4,2.4,0,0,0-.285,1.578,2.924,2.924,0,0,1-2.362.192,9.639,9.639,0,0,0,2.865-4.936,2.921,2.921,0,0,1,1.006,2.123Zm-1.019-6.449c-.027-.118-.046-.236-.077-.354a9.637,9.637,0,0,0-2.773-4.594,2.92,2.92,0,0,1,2.359.192,2.4,2.4,0,0,0,.285,1.578,2.432,2.432,0,0,0,1.224,1.044,2.926,2.926,0,0,1-1.019,2.134Z" transform="translate(-3.619 0)" fill="#004e6e"/>
        <g id="svgexport-6_-_2022-07-30T031821.056" data-name="svgexport-6 - 2022-07-30T031821.056" transform="translate(9.211 10.252)">
          <g id="Group_4707" data-name="Group 4707">
            <path id="Path_1189" data-name="Path 1189" d="M10.95,2.06h-.88V1.311a.163.163,0,0,0-.057-.123A3.4,3.4,0,0,0,7.3.463a2.738,2.738,0,0,0-1.228.616A2.442,2.442,0,0,0,4.943.409a3.074,3.074,0,0,0-2.85.783.163.163,0,0,0-.051.118V2.06h-.88A.163.163,0,0,0,1,2.223V7.56a1.062,1.062,0,0,0,.731,1.006c.078.026.157.049.235.073L1.354,9.7a.163.163,0,0,0,.093.237l1.922.6a.165.165,0,0,0,.048.007.163.163,0,0,0,.141-.082l.753-1.3a13.67,13.67,0,0,0,1.744.113,13.679,13.679,0,0,0,1.658-.1l.746,1.292a.163.163,0,0,0,.141.082.16.16,0,0,0,.043-.006L10.6,10a.163.163,0,0,0,.1-.239l-.636-1.1c.108-.033.217-.065.325-.1a1.055,1.055,0,0,0,.721-1V2.223a.163.163,0,0,0-.163-.163ZM7.364.781a3.015,3.015,0,0,1,2.38.607V7.57a4.138,4.138,0,0,0-2.479-.218,2.7,2.7,0,0,0-1.046.489s0,0,0-.007V1.381a2.4,2.4,0,0,1,1.145-.6ZM9.283,7.753c-.7.089-1.876.227-2.757.269a2.376,2.376,0,0,1,.811-.352A3.776,3.776,0,0,1,9.283,7.753ZM2.369,1.382A2.736,2.736,0,0,1,4.857.723a2.119,2.119,0,0,1,1.036.649V7.783a2.257,2.257,0,0,0-.8-.466,4.172,4.172,0,0,0-1.3-.226A2.523,2.523,0,0,0,2.369,7.5V1.382ZM5.676,8.026c-.981-.04-2.379-.212-3.054-.3a2.9,2.9,0,0,1,2.371-.1A1.93,1.93,0,0,1,5.676,8.026ZM3.341,10.184l-1.6-.5.548-.949a13.659,13.659,0,0,0,1.677.368Zm6.973-.439-1.634.443-.618-1.07a13.635,13.635,0,0,0,1.683-.359Zm.472-2.185a.729.729,0,0,1-.5.693,13.326,13.326,0,0,1-4.232.689,13.321,13.321,0,0,1-4.222-.686.736.736,0,0,1-.508-.7V2.386h.717V7.835a.163.163,0,0,0,.1.149A.161.161,0,0,0,2.183,8h0a38.346,38.346,0,0,0,3.873.365A38.356,38.356,0,0,0,9.93,8h0a.161.161,0,0,0,.045-.013.163.163,0,0,0,.1-.148V2.386h.716Z" transform="translate(-1 -0.317)" fill="#004e6e"/>
            <path id="Path_1190" data-name="Path 1190" d="M49.754,11.912a.163.163,0,0,0,.163-.163V10.288a.163.163,0,1,0-.326,0v1.461A.163.163,0,0,0,49.754,11.912Z" transform="translate(-41.665 -8.525)" fill="#004e6e"/>
            <path id="Path_1191" data-name="Path 1191" d="M35.858,12.671a.163.163,0,0,0,.163-.163v-.637a.171.171,0,0,1,.171-.171h.327a.163.163,0,1,0,0-.326h-.146a.162.162,0,0,1,.153-.112.164.164,0,0,1,.164.164v.1a.53.53,0,1,0,1.06,0V10.288a.163.163,0,0,0-.326,0v1.241a.2.2,0,1,1-.407,0v-.1a.489.489,0,0,0-.978-.025.5.5,0,0,0-.344.471v.637A.163.163,0,0,0,35.858,12.671Z" transform="translate(-30.036 -8.525)" fill="#004e6e"/>
            <path id="Path_1192" data-name="Path 1192" d="M34.449,30.915h2.725a.163.163,0,1,0,0-.326H34.449a.163.163,0,1,0,0,.326Z" transform="translate(-28.857 -25.651)" fill="#004e6e"/>
            <path id="Path_1193" data-name="Path 1193" d="M37.174,35.973H34.449a.163.163,0,1,0,0,.326h2.725a.163.163,0,1,0,0-.326Z" transform="translate(-28.857 -30.157)" fill="#004e6e"/>
            <path id="Path_1194" data-name="Path 1194" d="M10.984,14.455h2.725a.163.163,0,0,0,0-.326H10.984a.163.163,0,0,0,0,.326Z" transform="translate(-9.219 -11.876)" fill="#004e6e"/>
            <path id="Path_1195" data-name="Path 1195" d="M10.984,19.839h2.725a.163.163,0,0,0,0-.326H10.984a.163.163,0,0,0,0,.326Z" transform="translate(-9.219 -16.382)" fill="#004e6e"/>
            <path id="Path_1196" data-name="Path 1196" d="M10.984,25.223h2.725a.163.163,0,0,0,0-.326H10.984a.163.163,0,0,0,0,.326Z" transform="translate(-9.219 -20.888)" fill="#004e6e"/>
            <path id="Path_1197" data-name="Path 1197" d="M10.984,30.607h2.725a.163.163,0,0,0,0-.326H10.984a.163.163,0,0,0,0,.326Z" transform="translate(-9.219 -25.394)" fill="#004e6e"/>
            <path id="Path_1198" data-name="Path 1198" d="M13.872,35.828a.163.163,0,0,0-.163-.163H10.984a.163.163,0,0,0,0,.326h2.725A.163.163,0,0,0,13.872,35.828Z" transform="translate(-9.219 -29.899)" fill="#004e6e"/>
          </g>
        </g>
      </g>
    </g>
  </g>
</svg>
