<svg xmlns="http://www.w3.org/2000/svg" width="63" height="63" viewBox="0 0 63 63">
  <g id="Group_4916" data-name="Group 4916" transform="translate(5 5)">
    <rect id="Rectangle_7" data-name="Rectangle 7" width="63" height="63" rx="31.5" transform="translate(-5 -5)" fill="rgba(97,157,191,0.12)"/>
    <g id="svgexport-6_-_2022-07-30T062816.816" data-name="svgexport-6 - 2022-07-30T062816.816" transform="translate(14.248 14.914)">
      <g id="Group_4920" data-name="Group 4920" transform="translate(0.344 0)">
        <g id="Group_4919" data-name="Group 4919" transform="translate(0 0)">
          <path id="Path_1222" data-name="Path 1222" d="M19.251,40.854a2.355,2.355,0,0,0-1.708-.783,2.435,2.435,0,0,0-1.728.778l-1.6,1.592c-.131-.071-.263-.136-.389-.2-.182-.091-.354-.177-.5-.268a17.358,17.358,0,0,1-4.159-3.79A10.24,10.24,0,0,1,7.8,36.028c.414-.379.8-.773,1.172-1.152.142-.142.283-.288.425-.43a2.319,2.319,0,0,0,0-3.5l-1.38-1.38c-.157-.157-.318-.318-.47-.48-.3-.313-.622-.637-.95-.94a2.392,2.392,0,0,0-1.693-.743,2.476,2.476,0,0,0-1.718.743l-.01.01L1.462,29.892a3.7,3.7,0,0,0-1.1,2.35,8.859,8.859,0,0,0,.647,3.75,21.76,21.76,0,0,0,3.866,6.449,23.783,23.783,0,0,0,7.919,6.2,12.339,12.339,0,0,0,4.447,1.314c.106.005.217.01.318.01a3.808,3.808,0,0,0,2.916-1.253c.005-.01.015-.015.02-.025a11.489,11.489,0,0,1,.884-.915c.217-.207.44-.425.657-.652a2.521,2.521,0,0,0,.763-1.749,2.429,2.429,0,0,0-.778-1.733Zm1.809,5.322c-.005,0-.005.005,0,0-.2.212-.4.4-.617.617a13.29,13.29,0,0,0-.975,1.011,2.436,2.436,0,0,1-1.9.8c-.076,0-.157,0-.232-.005a10.961,10.961,0,0,1-3.942-1.183,22.449,22.449,0,0,1-7.459-5.842A20.518,20.518,0,0,1,2.3,35.517a7.216,7.216,0,0,1-.566-3.164,2.32,2.32,0,0,1,.7-1.5l1.723-1.723a1.149,1.149,0,0,1,.768-.359,1.081,1.081,0,0,1,.738.354l.015.015c.308.288.6.586.91.9.157.162.318.323.48.49l1.38,1.38a.965.965,0,0,1,0,1.567c-.147.147-.288.293-.435.435-.425.435-.829.839-1.269,1.233-.01.01-.02.015-.025.025a1.031,1.031,0,0,0-.263,1.147l.015.045A11.077,11.077,0,0,0,8.1,39.03l.005.005a18.549,18.549,0,0,0,4.488,4.083,6.9,6.9,0,0,0,.622.339c.182.091.354.177.5.268.02.01.04.025.061.035a1.1,1.1,0,0,0,.5.126,1.081,1.081,0,0,0,.768-.349l1.728-1.728a1.143,1.143,0,0,1,.763-.379,1.029,1.029,0,0,1,.728.369l.01.01,2.785,2.785A1,1,0,0,1,21.061,46.176Z" transform="translate(-0.344 -26.021)" fill="#004e6e"/>
          <path id="Path_1223" data-name="Path 1223" d="M245.505,87.279a6.5,6.5,0,0,1,5.3,5.3.678.678,0,0,0,.672.566.9.9,0,0,0,.116-.01.683.683,0,0,0,.561-.788,7.865,7.865,0,0,0-6.408-6.408.686.686,0,0,0-.788.556A.675.675,0,0,0,245.505,87.279Z" transform="translate(-232.582 -81.583)" fill="#004e6e"/>
          <path id="Path_1224" data-name="Path 1224" d="M260.12,10.563A12.95,12.95,0,0,0,249.568.011a.681.681,0,1,0-.222,1.344,11.567,11.567,0,0,1,9.43,9.43.678.678,0,0,0,.672.566.9.9,0,0,0,.116-.01A.67.67,0,0,0,260.12,10.563Z" transform="translate(-236.22 0)" fill="#004e6e"/>
        </g>
      </g>
    </g>
  </g>
</svg>
