<?xml version="1.0" encoding="utf-8"?>
<!-- Generator: Adobe Illustrator 25.3.1, SVG Export Plug-In . SVG Version: 6.00 Build 0)  -->
<svg version="1.1" id="Layer_1" xmlns="http://www.w3.org/2000/svg" xmlns:xlink="http://www.w3.org/1999/xlink" x="0px" y="0px"
	 viewBox="0 0 56 56" style="enable-background:new 0 0 56 56;" xml:space="preserve">
<style type="text/css">
	.st0{fill-rule:evenodd;clip-rule:evenodd;fill:#2486FC;}
	.st1{opacity:0.4;fill-rule:evenodd;clip-rule:evenodd;fill:#FFFFFF;enable-background:new    ;}
	.st2{fill:none;stroke:#FFFFFF;stroke-width:2.333;stroke-linecap:round;}
	.st3{fill:none;stroke:#FFFFFF;stroke-width:1.4;}
</style>
<g id="Design">
	<g id="Enterprise-Plus" transform="translate(-535.000000, -1532.000000)">
		<g id="Cards" transform="translate(0.000000, 1072.000000)">
			<g id="Group" transform="translate(420.000000, 460.000000)">
				<g id="Group-13" transform="translate(115.000000, 0.000000)">
					<path id="Fill-1" class="st0" d="M56,28c0,15.5-12.5,28-28,28S0,43.5,0,28S12.5,0,28,0S56,12.5,56,28"/>
					<path id="Fill-3" class="st1" d="M18.4,27.1L14,29.2c-0.6,0.3-0.6,1.2,0,1.5l12.8,5.5c0.8,0.3,1.6,0.3,2.4,0L42,30.7
						c0.6-0.3,0.7-1.2,0-1.5l-4.3-2.1L28,30.7L18.4,27.1z"/>
					<path id="Stroke-5" class="st2" d="M18.4,27L14,29.1c-0.6,0.3-0.6,1.2,0,1.5l12.8,5.5c0.8,0.3,1.6,0.3,2.4,0L42,30.6
						c0.6-0.3,0.7-1.2,0-1.5L37.8,27"/>
					<path id="Stroke-7" class="st2" d="M32.5,19.7l-3.3,1.4c-0.8,0.3-1.6,0.3-2.4,0l-3.3-1.4c-0.2-0.1-0.4-0.1-0.6,0l-8.8,3.7
						c-0.7,0.3-0.7,1.2,0,1.5l12.7,5.4c0.8,0.3,1.6,0.3,2.4,0L41.9,25c0.7-0.3,0.7-1.2,0-1.5l-8.8-3.7
						C32.9,19.6,32.7,19.6,32.5,19.7z"/>
					<path id="Stroke-9" class="st3" d="M26.8,14.2L24.9,15c-0.7,0.3-0.7,1.2,0,1.5l1.9,0.8c0.8,0.3,1.6,0.3,2.4,0l1.9-0.8
						c0.7-0.3,0.7-1.2,0-1.5l-1.9-0.8C28.4,13.9,27.6,13.9,26.8,14.2z"/>
					<path id="Stroke-11" class="st2" d="M18.4,32.7L14,34.8c-0.6,0.3-0.6,1.2,0,1.5l12.8,5.5c0.8,0.3,1.6,0.3,2.4,0L42,36.3
						c0.6-0.3,0.7-1.2,0-1.5l-4.3-2.1"/>
				</g>
			</g>
		</g>
	</g>
</g>
</svg>
