<?xml version="1.0" encoding="utf-8"?>
<!-- Generator: Adobe Illustrator 25.3.1, SVG Export Plug-In . SVG Version: 6.00 Build 0)  -->
<svg version="1.1" id="Layer_1" xmlns="http://www.w3.org/2000/svg" xmlns:xlink="http://www.w3.org/1999/xlink" x="0px" y="0px"
	 viewBox="0 0 56 56" style="enable-background:new 0 0 56 56;" xml:space="preserve">
<style type="text/css">
	.st0{fill-rule:evenodd;clip-rule:evenodd;fill:#26C281;}
	.st1{opacity:0.4;fill-rule:evenodd;clip-rule:evenodd;fill:#FFFFFF;enable-background:new    ;}
	.st2{fill-rule:evenodd;clip-rule:evenodd;fill:#FFFFFF;}
</style>
<g id="Design">
	<g id="Enterprise-Plus" transform="translate(-377.000000, -1804.000000)">
		<g id="Cards" transform="translate(0.000000, 1072.000000)">
			<g id="Group" transform="translate(262.000000, 732.000000)">
				<g id="Group-15" transform="translate(115.000000, 0.000000)">
					<path id="Fill-1" class="st0" d="M56,28c0,15.5-12.5,28-28,28S0,43.5,0,28S12.5,0,28,0S56,12.5,56,28"/>
					<path id="Fill-3" class="st1" d="M28,30.6c-2.8,0-5.2-2.3-5.2-5.2c-0.1-2.8,2.3-5.2,5.2-5.2s5.2,2.3,5.2,5.2S30.8,30.6,28,30.6
						 M28,14c-6.5,0-11.8,5.3-11.8,11.8c0,7.9,11.7,16.2,11.7,16.2s11.8-8,11.8-16.2C39.7,19.3,34.4,14,28,14"/>
					<path id="Fill-5" class="st2" d="M28,15.2c-5.9,0-10.6,4.8-10.6,10.6c0,6.2,8.2,12.9,10.6,14.8c2.4-1.8,10.6-8.4,10.6-14.8
						C38.5,19.9,33.8,15.2,28,15.2 M27.9,43.2c-0.2,0-0.5-0.1-0.7-0.2C26.7,42.6,15,34.2,15,25.8c0-7.2,5.8-13,13-13
						c7.1,0,12.9,5.8,12.9,13c0,8.7-11.8,16.8-12.3,17.2C28.3,43.1,28.1,43.2,27.9,43.2"/>
					<path id="Fill-7" class="st2" d="M28,21c-1.2,0-2.4,0.5-3.3,1.4c-0.8,0.8-1.2,1.9-1.2,3.1c0,2.5,2,4.5,4.5,4.5
						c2.5,0,4.5-2,4.5-4.5C32.4,23,30.4,21,28,21 M28,31.3c-3.2,0-5.9-2.6-5.9-5.9c0-1.5,0.5-2.9,1.6-4.1c1.1-1.1,2.7-1.8,4.3-1.8
						c3.2,0,5.9,2.6,5.9,5.9C33.8,28.7,31.2,31.3,28,31.3"/>
					<path id="Fill-9" class="st2" d="M42,26.2H31.1c-0.4,0-0.7-0.3-0.7-0.7c0-0.4,0.3-0.7,0.7-0.7H42c0.4,0,0.7,0.3,0.7,0.7
						C42.7,25.8,42.4,26.2,42,26.2"/>
					<path id="Fill-11" class="st2" d="M28,26.6c-0.3,0-0.6-0.1-0.8-0.3c-0.1-0.1-0.1-0.1-0.1-0.2c0-0.1-0.1-0.1-0.1-0.2
						c0-0.1-0.1-0.1-0.1-0.2c0-0.1,0-0.2,0-0.2c0-0.3,0.1-0.6,0.3-0.8c0.4-0.4,1.2-0.4,1.6,0c0.2,0.2,0.3,0.5,0.3,0.8
						c0,0.1,0,0.1,0,0.2c0,0.1,0,0.1-0.1,0.2c0,0.1-0.1,0.1-0.1,0.2c0,0.1-0.1,0.1-0.1,0.2C28.6,26.5,28.3,26.6,28,26.6"/>
					<path id="Fill-13" class="st2" d="M45.4,26.6c-0.1,0-0.2,0-0.2,0c-0.1,0-0.1,0-0.2-0.1c-0.1,0-0.1-0.1-0.2-0.1
						c-0.1,0-0.1-0.1-0.2-0.1c-0.2-0.2-0.3-0.5-0.3-0.8c0-0.1,0-0.1,0-0.2c0-0.1,0-0.1,0.1-0.2c0-0.1,0.1-0.1,0.1-0.2
						c0-0.1,0.1-0.1,0.1-0.2c0.1-0.1,0.1-0.1,0.2-0.1c0.1,0,0.1-0.1,0.2-0.1c0.1,0,0.1-0.1,0.2-0.1c0.4-0.1,0.8,0.1,1,0.3
						c0.2,0.2,0.3,0.5,0.3,0.8c0,0.1,0,0.2,0,0.2c0,0.1,0,0.1-0.1,0.2c0,0.1-0.1,0.1-0.1,0.2c0,0.1-0.1,0.1-0.1,0.2
						C46.1,26.5,45.8,26.6,45.4,26.6"/>
				</g>
			</g>
		</g>
	</g>
</g>
</svg>
