<?xml version="1.0" encoding="utf-8"?>
<!-- Generator: Adobe Illustrator 25.3.1, SVG Export Plug-In . SVG Version: 6.00 Build 0)  -->
<svg version="1.1" id="Layer_1" xmlns="http://www.w3.org/2000/svg" xmlns:xlink="http://www.w3.org/1999/xlink" x="0px" y="0px"
	 viewBox="0 0 56 56" style="enable-background:new 0 0 56 56;" xml:space="preserve">
<style type="text/css">
	.st0{fill-rule:evenodd;clip-rule:evenodd;fill:#003C84;}
	.st1{opacity:0.4;fill-rule:evenodd;clip-rule:evenodd;fill:#FFFFFF;enable-background:new    ;}
	.st2{fill:none;stroke:#FFFFFF;stroke-width:2.333;stroke-linecap:round;stroke-linejoin:round;}
	.st3{fill:none;stroke:#FFFFFF;stroke-width:1.4;stroke-linecap:round;stroke-linejoin:round;}
</style>
<g id="Design">
	<g id="Enterprise-Plus" transform="translate(-535.000000, -1260.000000)">
		<g id="Cards" transform="translate(0.000000, 1072.000000)">
			<g id="Group" transform="translate(420.000000, 188.000000)">
				<g id="Group-13" transform="translate(115.000000, 0.000000)">
					<path id="Fill-1" class="st0" d="M56,28c0,15.5-12.5,28-28,28S0,43.5,0,28S12.5,0,28,0S56,12.5,56,28"/>
					<path id="Fill-3" class="st1" d="M40.2,35.5v4.4c0,0.8-0.6,1.5-1.3,1.5h-20c-0.7,0-1.3-0.7-1.3-1.5V14.8c0-0.8,0.6-1.5,1.3-1.5
						h15.4c0.4,0,0.7,0.2,0.9,0.4l4.5,5c0.2,0.3,0.4,0.7,0.4,1v3.8"/>
					<path id="Stroke-5" class="st2" d="M40.2,35.5v4.4c0,0.8-0.6,1.5-1.3,1.5h-20c-0.7,0-1.3-0.7-1.3-1.5V14.8
						c0-0.8,0.6-1.5,1.3-1.5h15.4c0.4,0,0.7,0.2,0.9,0.4l4.5,5c0.2,0.3,0.4,0.7,0.4,1v3.8"/>
					<path id="Fill-7" class="st0" d="M40.5,23.8c-3.2,0-5.9,2.6-5.9,5.9s2.6,5.9,5.9,5.9s5.9-2.6,5.9-5.9S43.8,23.8,40.5,23.8"/>
					<path id="Stroke-9" class="st3" d="M40.5,23.8c-3.2,0-5.9,2.6-5.9,5.9s2.6,5.9,5.9,5.9s5.9-2.6,5.9-5.9S43.8,23.8,40.5,23.8z"
						/>
					<polyline id="Stroke-11" class="st2" points="38.3,29.9 40,31.3 43,28.3 					"/>
				</g>
			</g>
		</g>
	</g>
</g>
</svg>
