<?xml version="1.0" encoding="utf-8"?>
<!-- Generator: Adobe Illustrator 25.3.1, SVG Export Plug-In . SVG Version: 6.00 Build 0)  -->
<svg version="1.1" id="Layer_1" xmlns="http://www.w3.org/2000/svg" xmlns:xlink="http://www.w3.org/1999/xlink" x="0px" y="0px"
	 viewBox="0 0 56 56" style="enable-background:new 0 0 56 56;" xml:space="preserve">
<style type="text/css">
	.st0{fill-rule:evenodd;clip-rule:evenodd;fill:#222222;}
	.st1{opacity:0.4;fill-rule:evenodd;clip-rule:evenodd;fill:#FFFFFF;enable-background:new    ;}
	.st2{fill:none;stroke:#FFFFFF;stroke-width:2.333;stroke-linecap:round;stroke-linejoin:round;}
	.st3{fill:none;}
	.st4{fill:none;stroke:#FFFFFF;stroke-width:1.4;stroke-linecap:round;stroke-linejoin:round;}
</style>
<g id="Design">
	<g id="Enterprise-Plus" transform="translate(-220.000000, -1260.000000)">
		<g id="Cards" transform="translate(0.000000, 1072.000000)">
			<g id="Group" transform="translate(105.000000, 188.000000)">
				<g id="Group-11" transform="translate(115.000000, 0.000000)">
					<path id="Fill-1" class="st0" d="M56,28c0,15.5-12.5,28-28,28S0,43.5,0,28S12.5,0,28,0S56,12.5,56,28"/>
					<path id="Fill-3" class="st1" d="M28,14c0,0-5.2,5.2-12.2,2.3V35L28,42l12.2-7V16.3C33.1,19.2,28,14,28,14"/>
					<path id="Stroke-5" class="st2" d="M28,14c0,0-5.2,5.2-12.2,2.3V35L28,42l12.2-7V16.3C33.1,19.2,28,14,28,14z"/>
					<g id="Group-10" transform="translate(27.500000, 20.037600)">
						<line id="Fill-7" class="st3" x1="0.5" y1="0" x2="0.5" y2="16"/>
						<line id="Stroke-9" class="st4" x1="0.5" y1="0" x2="0.5" y2="16"/>
					</g>
				</g>
			</g>
		</g>
	</g>
</g>
</svg>
