<svg id="svgexport-6_-_2022-07-30T012210.302" data-name="svgexport-6 - 2022-07-30T012210.302" xmlns="http://www.w3.org/2000/svg" width="17" height="12.95" viewBox="0 0 17 12.95">
  <g id="Group_4688" data-name="Group 4688">
    <path id="Path_1154" data-name="Path 1154" d="M70.071,70.449l4.852,3.4a.5.5,0,0,0,.784-.408V61.484a.5.5,0,0,0-.784-.408l-4.852,3.4L69,67.46Z" transform="translate(-66.709 -60.985)" fill="#7e6be0"/>
    <path id="Path_1155" data-name="Path 1155" d="M75.707,256.011v5.977a.5.5,0,0,1-.784.408L70.071,259,69,256.011Z" transform="translate(-66.709 -249.536)" fill="#6e5bcb"/>
    <path id="Path_1156" data-name="Path 1156" d="M3.362,166.011H.5a.5.5,0,0,0-.5.5v4.98a.5.5,0,0,0,.5.5H3.362Z" transform="translate(0 -162.524)" fill="#988ee1"/>
    <path id="Path_1157" data-name="Path 1157" d="M3.362,256.011V259H.5a.5.5,0,0,1-.5-.5v-2.49Z" transform="translate(0 -249.536)" fill="#7e6be0"/>
    <path id="Path_1158" data-name="Path 1158" d="M361.5,136.011a.5.5,0,0,0-.5.5v6.973a.5.5,0,0,0,1,0v-6.973A.5.5,0,0,0,361.5,136.011Z" transform="translate(-349.014 -133.52)" fill="#ecb700"/>
    <path id="Path_1159" data-name="Path 1159" d="M362,256.011V259.5a.5.5,0,0,1-1,0v-3.486Z" transform="translate(-349.014 -249.536)" fill="#fd9d01"/>
    <path id="Path_1160" data-name="Path 1160" d="M301.5,211.011a.5.5,0,0,0-.5.5V213.5a.5.5,0,0,0,1,0v-1.992A.5.5,0,0,0,301.5,211.011Z" transform="translate(-291.006 -206.03)" fill="#ecb700"/>
    <path id="Path_1161" data-name="Path 1161" d="M302,256.011v1a.5.5,0,1,1-1,0v-1Z" transform="translate(-291.006 -249.536)" fill="#fd9d01"/>
    <path id="Path_1162" data-name="Path 1162" d="M421.5,196.011a.5.5,0,0,0-.5.5V199.5a.5.5,0,0,0,1,0v-2.988A.5.5,0,0,0,421.5,196.011Z" transform="translate(-407.022 -191.528)" fill="#ecb700"/>
    <path id="Path_1163" data-name="Path 1163" d="M422,256.011v1.494a.5.5,0,1,1-1,0v-1.494Z" transform="translate(-407.022 -249.536)" fill="#fd9d01"/>
    <path id="Path_1164" data-name="Path 1164" d="M482.5,166.011a.5.5,0,0,0-.5.5v4.98a.5.5,0,0,0,1,0v-4.98A.5.5,0,0,0,482.5,166.011Z" transform="translate(-465.996 -162.524)" fill="#ecb700"/>
    <path id="Path_1165" data-name="Path 1165" d="M483,256.011v2.49a.5.5,0,0,1-1,0v-2.49Z" transform="translate(-465.996 -249.536)" fill="#fd9d01"/>
  </g>
</svg>
